<svg width="48" height="48" viewBox="0 0 48 48" fill="none" xmlns="http://www.w3.org/2000/svg">
<rect width="48" height="48" rx="24" fill="#C3E2FF"/>
<path d="M36 23.9994C36.0001 25.1072 35.6717 26.19 35.0563 27.1111C34.4409 28.0322 33.5662 28.7501 32.5427 29.174C31.5193 29.598 30.3932 29.7089 29.3067 29.4927C28.2203 29.2766 27.2223 28.7431 26.439 27.9598L26.406 27.9248L20.4104 21.1541C19.8491 20.5994 19.1362 20.223 18.3615 20.0725C17.5868 19.9219 16.7849 20.0039 16.0567 20.308C15.3284 20.6122 14.7064 21.1249 14.2689 21.7818C13.8314 22.4386 13.598 23.2102 13.598 23.9994C13.598 24.7886 13.8314 25.5602 14.2689 26.217C14.7064 26.8739 15.3284 27.3866 16.0567 27.6908C16.7849 27.9949 17.5868 28.0769 18.3615 27.9263C19.1362 27.7758 19.8491 27.3995 20.4104 26.8447L21.2625 25.8826C21.3322 25.8038 21.4167 25.7395 21.5112 25.6933C21.6058 25.6472 21.7084 25.6201 21.8134 25.6137C21.9184 25.6072 22.0237 25.6215 22.1231 25.6557C22.2226 25.6899 22.3143 25.7434 22.3931 25.8131C22.4719 25.8828 22.5362 25.9673 22.5824 26.0618C22.6285 26.1563 22.6556 26.259 22.662 26.364C22.6685 26.469 22.6542 26.5742 22.62 26.6737C22.5858 26.7731 22.5323 26.8649 22.4626 26.9437L21.5936 27.9248L21.5606 27.9598C20.7773 28.743 19.7794 29.2763 18.693 29.4924C17.6066 29.7084 16.4805 29.5975 15.4572 29.1736C14.4339 28.7497 13.5592 28.0318 12.9438 27.1109C12.3285 26.1899 12 25.1071 12 23.9994C12 22.8917 12.3285 21.809 12.9438 20.888C13.5592 19.967 14.4339 19.2491 15.4572 18.8252C16.4805 18.4013 17.6066 18.2904 18.693 18.5064C19.7794 18.7225 20.7773 19.2558 21.5606 20.039L21.5936 20.074L27.5892 26.8447C28.1505 27.3995 28.8633 27.7758 29.6381 27.9263C30.4128 28.0769 31.2147 27.9949 31.9429 27.6908C32.6712 27.3866 33.2932 26.8739 33.7307 26.217C34.1682 25.5602 34.4016 24.7886 34.4016 23.9994C34.4016 23.2102 34.1682 22.4386 33.7307 21.7818C33.2932 21.1249 32.6712 20.6122 31.9429 20.308C31.2147 20.0039 30.4128 19.9219 29.6381 20.0725C28.8633 20.223 28.1505 20.5994 27.5892 21.1541L26.7371 22.1162C26.5964 22.2754 26.3982 22.3721 26.1862 22.3851C25.9741 22.3982 25.7656 22.3264 25.6065 22.1857C25.4473 22.045 25.3506 21.8468 25.3375 21.6348C25.3245 21.4228 25.3962 21.2143 25.537 21.0551L26.406 20.074L26.439 20.039C27.2223 19.2557 28.2203 18.7222 29.3067 18.5061C30.3932 18.2899 31.5193 18.4009 32.5427 18.8248C33.5662 19.2487 34.4409 19.9666 35.0563 20.8877C35.6717 21.8088 36.0001 22.8917 36 23.9994Z" fill="#222222"/>
</svg>
