<svg width="48" height="48" viewBox="0 0 48 48" fill="none" xmlns="http://www.w3.org/2000/svg">
<rect width="48" height="48" rx="24" fill="#C3E2FF"/>
<path d="M32.7375 21.7518C32.4009 21.4 32.0527 21.0375 31.9214 20.7188C31.8 20.4268 31.7929 19.9429 31.7857 19.4741C31.7723 18.6027 31.758 17.6152 31.0714 16.9286C30.3848 16.242 29.3973 16.2277 28.5259 16.2143C28.0571 16.2071 27.5732 16.2 27.2812 16.0786C26.9634 15.9473 26.6 15.5991 26.2482 15.2625C25.6321 14.6705 24.9321 14 24 14C23.0679 14 22.3688 14.6705 21.7518 15.2625C21.4 15.5991 21.0375 15.9473 20.7188 16.0786C20.4286 16.2 19.9429 16.2071 19.4741 16.2143C18.6027 16.2277 17.6152 16.242 16.9286 16.9286C16.242 17.6152 16.2321 18.6027 16.2143 19.4741C16.2071 19.9429 16.2 20.4268 16.0786 20.7188C15.9473 21.0366 15.5991 21.4 15.2625 21.7518C14.6705 22.3679 14 23.0679 14 24C14 24.9321 14.6705 25.6312 15.2625 26.2482C15.5991 26.6 15.9473 26.9625 16.0786 27.2812C16.2 27.5732 16.2071 28.0571 16.2143 28.5259C16.2277 29.3973 16.242 30.3848 16.9286 31.0714C17.6152 31.758 18.6027 31.7723 19.4741 31.7857C19.9429 31.7929 20.4268 31.8 20.7188 31.9214C21.0366 32.0527 21.4 32.4009 21.7518 32.7375C22.3679 33.3295 23.0679 34 24 34C24.9321 34 25.6312 33.3295 26.2482 32.7375C26.6 32.4009 26.9625 32.0527 27.2812 31.9214C27.5732 31.8 28.0571 31.7929 28.5259 31.7857C29.3973 31.7723 30.3848 31.758 31.0714 31.0714C31.758 30.3848 31.7723 29.3973 31.7857 28.5259C31.7929 28.0571 31.8 27.5732 31.9214 27.2812C32.0527 26.9634 32.4009 26.6 32.7375 26.2482C33.3295 25.6321 34 24.9321 34 24C34 23.0679 33.3295 22.3688 32.7375 21.7518ZM31.7063 25.2598C31.2786 25.7063 30.8357 26.1679 30.6009 26.7348C30.3759 27.2795 30.3661 27.9018 30.3571 28.5045C30.3482 29.1295 30.3384 29.7839 30.0607 30.0607C29.783 30.3375 29.133 30.3482 28.5045 30.3571C27.9018 30.3661 27.2795 30.3759 26.7348 30.6009C26.1679 30.8357 25.7063 31.2786 25.2598 31.7063C24.8134 32.1339 24.3571 32.5714 24 32.5714C23.6429 32.5714 23.183 32.1321 22.7402 31.7063C22.2973 31.2804 21.8321 30.8357 21.2652 30.6009C20.7205 30.3759 20.0982 30.3661 19.4955 30.3571C18.8705 30.3482 18.2161 30.3384 17.9393 30.0607C17.6625 29.783 17.6518 29.133 17.6429 28.5045C17.6339 27.9018 17.6241 27.2795 17.3991 26.7348C17.1643 26.1679 16.7214 25.7063 16.2938 25.2598C15.8661 24.8134 15.4286 24.3571 15.4286 24C15.4286 23.6429 15.8679 23.183 16.2938 22.7402C16.7196 22.2973 17.1643 21.8321 17.3991 21.2652C17.6241 20.7205 17.6339 20.0982 17.6429 19.4955C17.6518 18.8705 17.6616 18.2161 17.9393 17.9393C18.217 17.6625 18.867 17.6518 19.4955 17.6429C20.0982 17.6339 20.7205 17.6241 21.2652 17.3991C21.8321 17.1643 22.2937 16.7214 22.7402 16.2938C23.1866 15.8661 23.6429 15.4286 24 15.4286C24.3571 15.4286 24.817 15.8679 25.2598 16.2938C25.7027 16.7196 26.1679 17.1643 26.7348 17.3991C27.2795 17.6241 27.9018 17.6339 28.5045 17.6429C29.1295 17.6518 29.7839 17.6616 30.0607 17.9393C30.3375 18.217 30.3482 18.867 30.3571 19.4955C30.3661 20.0982 30.3759 20.7205 30.6009 21.2652C30.8357 21.8321 31.2786 22.2937 31.7063 22.7402C32.1339 23.1866 32.5714 23.6429 32.5714 24C32.5714 24.3571 32.1321 24.817 31.7063 25.2598ZM28.0768 21.3518C28.1432 21.4181 28.1959 21.4969 28.2318 21.5836C28.2678 21.6703 28.2863 21.7633 28.2863 21.8571C28.2863 21.951 28.2678 22.044 28.2318 22.1307C28.1959 22.2174 28.1432 22.2962 28.0768 22.3625L23.0768 27.3625C23.0104 27.4289 22.9317 27.4816 22.845 27.5175C22.7582 27.5535 22.6653 27.572 22.5714 27.572C22.4776 27.572 22.3846 27.5535 22.2979 27.5175C22.2112 27.4816 22.1324 27.4289 22.0661 27.3625L19.9232 25.2196C19.7892 25.0856 19.7139 24.9038 19.7139 24.7143C19.7139 24.5247 19.7892 24.343 19.9232 24.2089C20.0572 24.0749 20.239 23.9996 20.4286 23.9996C20.6181 23.9996 20.7999 24.0749 20.9339 24.2089L22.5714 25.8473L27.0661 21.3518C27.1324 21.2854 27.2112 21.2327 27.2979 21.1967C27.3846 21.1608 27.4776 21.1423 27.5714 21.1423C27.6653 21.1423 27.7582 21.1608 27.845 21.1967C27.9317 21.2327 28.0104 21.2854 28.0768 21.3518Z" fill="#222222"/>
</svg>
