<svg width="48" height="48" viewBox="0 0 48 48" fill="none" xmlns="http://www.w3.org/2000/svg">
<rect width="48" height="48" rx="24" fill="#C3E2FF"/>
<path d="M31.0859 22.75C31.0859 22.9972 31.0126 23.2389 30.8753 23.4445C30.7379 23.65 30.5427 23.8102 30.3143 23.9048C30.0859 23.9995 29.8346 24.0242 29.5921 23.976C29.3496 23.9277 29.1269 23.8087 28.9521 23.6339C28.7772 23.4591 28.6582 23.2363 28.61 22.9939C28.5617 22.7514 28.5865 22.5001 28.6811 22.2716C28.7757 22.0432 28.9359 21.848 29.1415 21.7107C29.347 21.5733 29.5887 21.5 29.8359 21.5C30.1675 21.5 30.4854 21.6317 30.7198 21.8661C30.9542 22.1005 31.0859 22.4185 31.0859 22.75ZM26.9193 17.3333H22.7526C22.5316 17.3333 22.3196 17.4211 22.1633 17.5774C22.0071 17.7337 21.9193 17.9457 21.9193 18.1667C21.9193 18.3877 22.0071 18.5996 22.1633 18.7559C22.3196 18.9122 22.5316 19 22.7526 19H26.9193C27.1403 19 27.3522 18.9122 27.5085 18.7559C27.6648 18.5996 27.7526 18.3877 27.7526 18.1667C27.7526 17.9457 27.6648 17.7337 27.5085 17.5774C27.3522 17.4211 27.1403 17.3333 26.9193 17.3333ZM36.9193 22.3333V25.6667C36.9193 26.3297 36.6559 26.9656 36.187 27.4344C35.7182 27.9033 35.0823 28.1667 34.4193 28.1667H34.1734L32.4849 32.8937C32.3693 33.2175 32.1564 33.4977 31.8753 33.6957C31.5943 33.8937 31.2589 34 30.9151 34H29.5901C29.2463 34 28.9109 33.8937 28.6299 33.6957C28.3488 33.4977 28.1359 33.2175 28.0203 32.8937L27.8203 32.3333H21.8516L21.6516 32.8937C21.536 33.2175 21.323 33.4977 21.042 33.6957C20.761 33.8937 20.4256 34 20.0818 34H18.7568C18.413 34 18.0776 33.8937 17.7965 33.6957C17.5155 33.4977 17.3026 33.2175 17.187 32.8937L15.8776 29.2312C14.632 27.8215 13.852 26.0614 13.6443 24.1917C13.3753 24.3329 13.1501 24.545 12.993 24.805C12.8358 25.0649 12.7527 25.3629 12.7526 25.6667C12.7526 25.8877 12.6648 26.0996 12.5085 26.2559C12.3522 26.4122 12.1403 26.5 11.9193 26.5C11.6983 26.5 11.4863 26.4122 11.33 26.2559C11.1737 26.0996 11.0859 25.8877 11.0859 25.6667C11.0872 24.9235 11.3368 24.2021 11.795 23.617C12.2533 23.0319 12.8939 22.6168 13.6151 22.4375C13.8013 20.141 14.8443 17.9984 16.5371 16.4353C18.2298 14.8722 20.4485 14.0029 22.7526 14H33.5859C33.807 14 34.0189 14.0878 34.1752 14.2441C34.3315 14.4004 34.4193 14.6123 34.4193 14.8333C34.4193 15.0543 34.3315 15.2663 34.1752 15.4226C34.0189 15.5789 33.807 15.6667 33.5859 15.6667H31.3578C32.7408 16.637 33.8284 17.9709 34.5005 19.5208C34.5453 19.625 34.5891 19.7292 34.6307 19.8333C35.2565 19.8864 35.8393 20.1731 36.2633 20.6363C36.6873 21.0995 36.9215 21.7054 36.9193 22.3333ZM35.2526 22.3333C35.2526 22.1123 35.1648 21.9004 35.0085 21.7441C34.8522 21.5878 34.6403 21.5 34.4193 21.5H34.038C33.8605 21.5002 33.6876 21.4437 33.5445 21.3388C33.4013 21.2339 33.2954 21.086 33.2422 20.9167C32.7647 19.3931 31.8129 18.0619 30.5255 17.1174C29.2381 16.173 27.6826 15.6647 26.0859 15.6667H22.7526C21.2971 15.6666 19.873 16.09 18.654 16.8854C17.435 17.6807 16.4738 18.8135 15.8875 20.1457C15.3013 21.4779 15.1153 22.952 15.3523 24.388C15.5894 25.8241 16.2391 27.1602 17.2224 28.2333C17.2976 28.3151 17.3557 28.4111 17.3932 28.5156L18.7568 32.3333H20.0818L20.4797 31.2198C20.5375 31.058 20.6438 30.918 20.7842 30.819C20.9247 30.72 21.0922 30.6668 21.2641 30.6667H28.4078C28.5796 30.6668 28.7472 30.72 28.8876 30.819C29.028 30.918 29.1344 31.058 29.1922 31.2198L29.5901 32.3333H30.9151L32.8016 27.0531C32.8593 26.8913 32.9657 26.7513 33.1061 26.6523C33.2465 26.5533 33.4141 26.5001 33.5859 26.5H34.4193C34.6403 26.5 34.8522 26.4122 35.0085 26.2559C35.1648 26.0996 35.2526 25.8877 35.2526 25.6667V22.3333Z" fill="#222222"/>
</svg>
