<svg width="48" height="48" viewBox="0 0 48 48" fill="none" xmlns="http://www.w3.org/2000/svg">
<rect width="48" height="48" rx="24" fill="#C3E2FF"/>
<path d="M22.9776 26.8508C24.0004 26.1699 24.7769 25.1779 25.1923 24.0216C25.6076 22.8652 25.6399 21.6059 25.2842 20.4298C24.9285 19.2538 24.2038 18.2234 23.2172 17.491C22.2307 16.7587 21.0346 16.3633 19.8059 16.3633C18.5772 16.3633 17.3812 16.7587 16.3946 17.491C15.408 18.2234 14.6833 19.2538 14.3276 20.4298C13.972 21.6059 14.0042 22.8652 14.4196 24.0216C14.835 25.1779 15.6115 26.1699 16.6342 26.8508C14.7842 27.5326 13.2042 28.7944 12.13 30.4479C12.0735 30.5318 12.0343 30.6261 12.0146 30.7253C11.9949 30.8245 11.9951 30.9266 12.0153 31.0257C12.0354 31.1248 12.075 31.2189 12.1318 31.3026C12.1886 31.3863 12.2615 31.4578 12.3462 31.513C12.4309 31.5683 12.5258 31.6062 12.6252 31.6244C12.7247 31.6427 12.8268 31.641 12.9256 31.6195C13.0244 31.5979 13.118 31.557 13.2008 31.499C13.2837 31.441 13.3542 31.3671 13.4082 31.2816C14.1011 30.2159 15.0492 29.3401 16.1665 28.7339C17.2838 28.1277 18.5348 27.8101 19.8059 27.8101C21.0771 27.8101 22.3281 28.1277 23.4454 28.7339C24.5626 29.3401 25.5108 30.2159 26.2037 31.2816C26.3156 31.4479 26.4885 31.5635 26.685 31.6034C26.8815 31.6433 27.0858 31.6043 27.2537 31.4948C27.4216 31.3852 27.5397 31.214 27.5824 31.0181C27.6251 30.8222 27.589 30.6174 27.4819 30.4479C26.4077 28.7944 24.8277 27.5326 22.9776 26.8508ZM15.6088 22.0889C15.6088 21.2588 15.855 20.4474 16.3161 19.7571C16.7773 19.0669 17.4328 18.529 18.1998 18.2113C18.9667 17.8936 19.8106 17.8105 20.6247 17.9725C21.4389 18.1344 22.1868 18.5342 22.7737 19.1211C23.3607 19.7081 23.7604 20.456 23.9224 21.2701C24.0843 22.0843 24.0012 22.9282 23.6835 23.6951C23.3659 24.462 22.8279 25.1175 22.1377 25.5787C21.4475 26.0399 20.636 26.2861 19.8059 26.2861C18.6932 26.2848 17.6263 25.8422 16.8395 25.0554C16.0527 24.2685 15.6101 23.2017 15.6088 22.0889ZM35.6538 31.5038C35.4843 31.6144 35.2779 31.653 35.0798 31.6114C34.8818 31.5697 34.7085 31.4511 34.5979 31.2816C33.9058 30.2152 32.9578 29.3391 31.8403 28.7331C30.7228 28.1272 29.4714 27.8106 28.2001 27.8123C27.9978 27.8123 27.8037 27.7319 27.6605 27.5888C27.5174 27.4457 27.437 27.2516 27.437 27.0492C27.437 26.8468 27.5174 26.6527 27.6605 26.5096C27.8037 26.3665 27.9978 26.2861 28.2001 26.2861C28.8182 26.2855 29.4286 26.1484 29.9875 25.8846C30.5465 25.6208 31.0403 25.2368 31.4337 24.76C31.827 24.2832 32.1102 23.7255 32.263 23.1266C32.4158 22.5277 32.4345 21.9024 32.3176 21.2954C32.2008 20.6885 31.9513 20.1149 31.587 19.6155C31.2228 19.1161 30.7527 18.7034 30.2105 18.4068C29.6682 18.1101 29.0671 17.9369 28.4502 17.8995C27.8332 17.8621 27.2156 17.9614 26.6415 18.1904C26.5479 18.2309 26.4471 18.2522 26.3451 18.253C26.2432 18.2539 26.142 18.2343 26.0478 18.1954C25.9535 18.1565 25.868 18.0992 25.7962 18.0267C25.7245 17.9542 25.668 17.868 25.6302 17.7733C25.5923 17.6787 25.5738 17.5773 25.5757 17.4754C25.5777 17.3734 25.6 17.2729 25.6415 17.1797C25.6829 17.0865 25.7427 17.0026 25.8171 16.9329C25.8915 16.8632 25.9792 16.8091 26.0749 16.7739C27.3888 16.2498 28.8503 16.231 30.1773 16.7209C31.5043 17.2109 32.6029 18.1749 33.2611 19.427C33.9193 20.6792 34.0905 22.1307 33.7416 23.5016C33.3927 24.8725 32.5485 26.0656 31.3718 26.8508C33.2219 27.5326 34.8019 28.7944 35.8761 30.4479C35.9866 30.6174 36.0253 30.8239 35.9836 31.0219C35.942 31.2199 35.8233 31.3933 35.6538 31.5038Z" fill="#222222"/>
</svg>
