<svg width="24" height="25" viewBox="0 0 24 25" fill="none" xmlns="http://www.w3.org/2000/svg">
<path d="M19.0003 7.89062C19.0003 8.09063 19.0003 8.19062 19.0003 8.39062C18.9003 9.89062 18.2003 11.1906 17.3003 12.0906C16.2003 13.1906 14.7003 13.8906 13.0003 13.8906H9.90031C9.40031 13.8906 9.00031 14.2906 8.90031 14.7906L8.10031 20.0906C8.00031 20.4906 7.80031 20.7906 7.40031 20.8906C7.30031 20.8906 7.20031 20.8906 7.10031 20.8906H5.20031C4.60031 20.8906 4.10031 20.3906 4.20031 19.6906L6.60031 5.39062C6.80031 3.99063 8.10031 2.89062 9.50031 2.89062H14.0003C16.8003 2.89062 19.0003 5.09063 19.0003 7.89062Z" stroke="#222222" stroke-width="1.5" stroke-miterlimit="10"/>
<path d="M21.0003 11.8906C21.0003 13.2906 20.4003 14.4906 19.5003 15.3906C18.6003 16.2906 17.4003 16.8906 16.0003 16.8906H13.9003C13.4003 16.8906 13.0003 17.1906 12.9003 17.6906L12.2003 21.9906C12.1003 22.4906 11.7003 22.7906 11.2003 22.7906H8.20031C7.60031 22.7906 7.10031 22.1906 7.20031 21.5906L7.40031 20.8906C7.80031 20.7906 8.10031 20.4906 8.10031 20.0906L8.90031 14.7906C9.00031 14.2906 9.40031 13.8906 9.90031 13.8906H13.0003C14.7003 13.8906 16.2003 13.1906 17.2003 12.0906C18.2003 11.0906 18.8003 9.79062 18.9003 8.39062C20.2003 9.09062 21.0003 10.3906 21.0003 11.8906Z" stroke="#222222" stroke-width="1.5" stroke-miterlimit="10"/>
</svg>
