<svg width="49" height="25" viewBox="0 0 49 25" fill="none" xmlns="http://www.w3.org/2000/svg">
<path d="M1 4.88916C1.5277 4.88916 3.53711 4.88916 3.53711 4.88916C5.06584 4.96347 5.78973 5.87397 6.10621 7.19073L8.85924 19.372C9.05356 20.0556 9.76017 20.8406 10.6129 20.8921C11.4657 20.9455 12.0938 20.7153 12.625 19.8418L18.9219 4.87891" stroke="#222222" stroke-width="1.5" stroke-linecap="round" stroke-linejoin="round"/>
<path d="M22.4219 4.89062L19.9219 20.8906" stroke="#222222" stroke-width="1.5" stroke-linecap="round" stroke-linejoin="round"/>
<path d="M34.1562 4.89062H28.9727C26.6393 4.89062 24.9727 6.89062 24.9727 8.89062C24.9727 11.224 26.2188 12.3594 28.9727 12.8906C31.996 13.4738 32.9727 14.8906 32.9727 16.8906C32.9727 19.224 30.9727 20.8906 28.9727 20.8906H23.4219" stroke="#222222" stroke-width="1.5" stroke-miterlimit="10" stroke-linecap="round" stroke-linejoin="round"/>
<path d="M35.1562 20.8906L37.4039 15.4922M48.1324 20.8906L46.8167 15.4922M46.8167 15.4922L44.6721 6.69281C44.2684 5.03779 43.2063 4.81412 42.7257 4.90916C41.8606 4.85208 41.2599 6.07447 41.0676 6.69281L37.4039 15.4922M46.8167 15.4922H37.4039" stroke="#222222" stroke-width="1.5" stroke-linecap="round"/>
</svg>
