<svg width="32" height="32" viewBox="0 0 32 32" fill="none" xmlns="http://www.w3.org/2000/svg">
<g id="UI icon/sort/light">
<path id="Path 13 Copy 5 (Stroke)" fill-rule="evenodd" clip-rule="evenodd" d="M5.33594 8.0013C5.33594 7.26492 5.93289 6.66797 6.66927 6.66797H26.6693C27.4056 6.66797 28.0026 7.26492 28.0026 8.0013C28.0026 8.73768 27.4056 9.33464 26.6693 9.33464H6.66927C5.93289 9.33464 5.33594 8.73768 5.33594 8.0013Z" fill="#222222"/>
<path id="Path 13 Copy 6 (Stroke)" fill-rule="evenodd" clip-rule="evenodd" d="M5.33594 16.0013C5.33594 15.2649 5.93289 14.668 6.66927 14.668H20.0026C20.739 14.668 21.3359 15.2649 21.3359 16.0013C21.3359 16.7377 20.739 17.3346 20.0026 17.3346H6.66927C5.93289 17.3346 5.33594 16.7377 5.33594 16.0013Z" fill="#222222"/>
<path id="Path 13 Copy 7 (Stroke)" fill-rule="evenodd" clip-rule="evenodd" d="M5.33594 24.0013C5.33594 23.2649 5.93289 22.668 6.66927 22.668H14.6693C15.4057 22.668 16.0026 23.2649 16.0026 24.0013C16.0026 24.7377 15.4057 25.3346 14.6693 25.3346H6.66927C5.93289 25.3346 5.33594 24.7377 5.33594 24.0013Z" fill="#222222"/>
</g>
</svg>
