<svg width="32" height="32" viewBox="0 0 32 32" fill="none" xmlns="http://www.w3.org/2000/svg">
<g id="UI icon/close/light">
<path id="Union" d="M8.9402 7.05849C8.41951 6.53779 7.57529 6.53779 7.05459 7.05849C6.53389 7.57919 6.53389 8.42341 7.05459 8.94411L14.1118 16.0013L7.05463 23.0585C6.53393 23.5792 6.53393 24.4234 7.05463 24.9441C7.57532 25.4648 8.41954 25.4648 8.94024 24.9441L15.9974 17.8869L23.0546 24.9441C23.5753 25.4648 24.4195 25.4648 24.9402 24.9441C25.4609 24.4234 25.4609 23.5792 24.9402 23.0585L17.883 16.0013L24.9402 8.94411C25.4609 8.42341 25.4609 7.57919 24.9402 7.05849C24.4195 6.5378 23.5753 6.5378 23.0546 7.05849L15.9974 14.1157L8.9402 7.05849Z" fill="#222222"/>
</g>
</svg>
